<svg width="500" height="500" viewBox="0 0 500 500" fill="none" xmlns="http://www.w3.org/2000/svg">
<g clip-path="url(#clip0_2002_25)">
<rect width="500" height="500" rx="100" fill="black"/>
<path d="M252.005 382.536C223.012 382.536 199.086 378.882 180.229 371.575C161.608 364.032 147.7 353.896 138.507 341.168C129.55 328.203 124.954 313.235 124.718 296.264H198.969C199.204 307.578 203.919 316.653 213.112 323.489C222.54 330.325 236.447 333.742 254.833 333.742C270.391 333.742 282.176 331.385 290.191 326.671C298.441 321.957 302.566 315.239 302.566 306.517C302.566 299.446 300.68 294.142 296.909 290.606C293.373 287.071 287.362 284.478 278.876 282.828C270.391 281.178 258.841 279.528 244.226 277.878C218.769 274.813 197.672 270.453 180.936 264.795C164.2 259.138 151.707 251.124 143.457 240.752C135.207 230.381 131.082 216.827 131.082 200.091C131.082 173.927 141.689 153.773 162.904 139.63C184.354 125.251 213.701 118.062 250.944 118.062C284.651 118.062 311.877 124.898 332.62 138.569C353.363 152.005 364.795 171.334 366.917 196.556H294.787C293.609 185.948 288.777 178.287 280.291 173.573C272.041 168.623 261.316 166.148 248.115 166.148C234.208 166.148 223.365 168.505 215.587 173.22C208.044 177.698 204.272 183.827 204.272 191.605C204.272 197.97 205.922 202.802 209.222 206.102C212.522 209.166 218.415 211.641 226.901 213.527C235.387 215.413 247.526 217.181 263.319 218.831C289.484 221.895 310.816 226.256 327.316 231.913C344.052 237.334 356.309 245.467 364.088 256.31C372.102 267.153 376.109 282.003 376.109 300.86C376.109 326.317 365.384 346.353 343.934 360.968C322.72 375.346 292.077 382.536 252.005 382.536Z" fill="#06FFC3"/>
</g>
<defs>
<clipPath id="clip0_2002_25">
<rect width="500" height="500" fill="white"/>
</clipPath>
</defs>
</svg>
