<svg width="77" height="24" viewBox="0 0 77 24" fill="none" xmlns="http://www.w3.org/2000/svg">
<path d="M73.7957 17.0477C72.9707 17.0477 72.3047 16.8473 71.7979 16.4466C71.3029 16.034 71.0554 15.4035 71.0554 14.5549V10.0819H69.3405V7.5007H71.0554V5.18468L74.4322 4.54822V7.5007H76.7482V10.0819H74.4322V13.4234C74.4322 13.6944 74.497 13.883 74.6266 13.9891C74.7563 14.0834 74.9567 14.1305 75.2278 14.1305H76.7482V17.0477H73.7957Z" fill="black"/>
<path d="M63.8406 6.40436V4.15906H67.2881V6.40436H63.8406ZM63.8406 17.0475V7.5005H67.2881V17.0475H63.8406Z" fill="black"/>
<path d="M48.1129 17.0475V4.15906H51.6842V9.97563L57.2356 4.15906H61.8146L56.3516 9.51597L62.2035 17.0475H57.7129L53.8057 11.9381L51.6842 14.1127V17.0475H48.1129Z" fill="black"/>
<path d="M34.224 20.0001V7.50069H37.477L37.6008 8.8797H37.7069C37.9897 8.42003 38.4141 8.05465 38.9798 7.78356C39.5455 7.50069 40.2704 7.35925 41.1544 7.35925C42.0855 7.35925 42.8988 7.55962 43.5942 7.96036C44.2896 8.3611 44.8317 8.93273 45.2207 9.67528C45.6096 10.406 45.8041 11.2782 45.8041 12.2919C45.8041 13.2937 45.6096 14.1659 45.2207 14.9084C44.8317 15.6392 44.2837 16.2108 43.5765 16.6233C42.8811 17.0241 42.0619 17.2244 41.119 17.2244C40.3883 17.2244 39.7282 17.0889 39.1389 16.8178C38.5496 16.5349 38.1017 16.1519 37.7953 15.6686H37.6715V20.0001H34.224ZM40.0759 14.6432C40.7478 14.6432 41.2958 14.4429 41.7201 14.0421C42.1444 13.6296 42.3566 13.0462 42.3566 12.2919C42.3566 11.5375 42.1444 10.96 41.7201 10.5593C41.3076 10.1467 40.7595 9.94047 40.0759 9.94047C39.3216 9.94047 38.7323 10.1467 38.308 10.5593C37.8837 10.9718 37.6715 11.4904 37.6715 12.1151V12.4333C37.6715 13.0698 37.8837 13.6001 38.308 14.0244C38.7323 14.437 39.3216 14.6432 40.0759 14.6432Z" fill="black"/>
<path d="M28.2467 6.40436V4.15906H31.6942V6.40436H28.2467ZM28.2467 17.0475V7.5005H31.6942V17.0475H28.2467Z" fill="black"/>
<path d="M14.6383 17.0475V4.15906H18.0858V9.03862H18.2449C18.5396 8.52002 18.9934 8.10749 19.6063 7.80105C20.2309 7.48282 20.8969 7.3237 21.6041 7.3237C22.4291 7.3237 23.1481 7.46514 23.761 7.74801C24.3856 8.0191 24.8689 8.48466 25.2107 9.1447C25.5643 9.79295 25.7411 10.6769 25.7411 11.7966V17.0475H22.2936V12.4154C22.2936 11.6375 22.158 11.0305 21.8869 10.5944C21.6158 10.1465 21.1149 9.9226 20.3842 9.9226C19.6652 9.9226 19.0994 10.1465 18.6869 10.5944C18.2862 11.0423 18.0858 11.608 18.0858 12.2917V17.0475H14.6383Z" fill="black"/>
<path d="M6.36464 17.2243C4.91492 17.2243 3.7186 17.0416 2.77569 16.6762C1.84457 16.2991 1.14917 15.7923 0.689503 15.1558C0.241621 14.5076 0.0117864 13.7591 0 12.9105H3.71271C3.7245 13.4762 3.96022 13.93 4.41989 14.2718C4.89135 14.6136 5.58674 14.7845 6.50608 14.7845C7.28398 14.7845 7.8733 14.6667 8.27404 14.4309C8.68656 14.1952 8.89282 13.8593 8.89282 13.4232C8.89282 13.0696 8.79853 12.8044 8.60995 12.6276C8.43315 12.4508 8.1326 12.3212 7.70829 12.2387C7.28398 12.1562 6.70645 12.0737 5.97569 11.9912C4.70276 11.8379 3.64788 11.6199 2.81105 11.337C1.97422 11.0541 1.34954 10.6534 0.937017 10.1348C0.524494 9.61621 0.318232 8.93849 0.318232 8.10166C0.318232 6.79337 0.848619 5.78564 1.90939 5.07845C2.98195 4.35948 4.44936 4 6.3116 4C7.99706 4 9.35838 4.34181 10.3956 5.02542C11.4328 5.69724 12.0044 6.66372 12.1105 7.92486H8.50387C8.44494 7.39448 8.20332 7.01142 7.77901 6.77569C7.36649 6.52818 6.83021 6.40442 6.17017 6.40442C5.47477 6.40442 4.9326 6.52228 4.54365 6.75801C4.16648 6.98195 3.9779 7.2884 3.9779 7.67735C3.9779 7.99558 4.06041 8.2372 4.22542 8.40221C4.39043 8.55544 4.68508 8.67919 5.10939 8.77348C5.5337 8.86777 6.1407 8.95617 6.93039 9.03868C8.23868 9.1919 9.30534 9.40995 10.1304 9.69282C10.9672 9.96391 11.5801 10.3705 11.9691 10.9127C12.3698 11.4549 12.5702 12.1974 12.5702 13.1403C12.5702 14.4133 12.0339 15.4151 10.9613 16.1459C9.90056 16.8648 8.36833 17.2243 6.36464 17.2243Z" fill="black"/>
</svg>
