<svg width="221" height="221" viewBox="0 0 221 221" fill="none" xmlns="http://www.w3.org/2000/svg">
<rect width="221" height="221" rx="84.6175" fill="black"/>
<path d="M128.821 136.77C143.665 136.77 155.699 124.737 155.699 109.892C155.699 95.048 143.665 83.0144 128.821 83.0144C113.977 83.0144 101.943 95.048 101.943 109.892C101.943 124.737 113.977 136.77 128.821 136.77Z" fill="#6C47FF"/>
<path d="M177.249 173.53C179.536 175.816 179.306 179.602 176.619 181.402C162.948 190.56 146.505 195.9 128.815 195.9C111.125 195.9 94.6814 190.56 81.0103 181.402C78.3234 179.602 78.0938 175.816 80.3805 173.53L100.022 153.888C101.798 152.112 104.552 151.832 106.786 152.977C113.393 156.362 120.881 158.271 128.815 158.271C136.748 158.271 144.236 156.362 150.843 152.977C153.078 151.832 155.832 152.112 157.607 153.888L177.249 173.53Z" fill="#6C47FF"/>
<path d="M176.626 38.3811C179.312 40.1809 179.542 43.9668 177.255 46.2536L157.613 65.8957C155.838 67.671 153.084 67.9514 150.85 66.8067C144.243 63.4219 136.755 61.5122 128.821 61.5122C102.102 61.5122 80.4414 83.1726 80.4414 109.892C80.4414 117.826 82.3511 125.314 85.7359 131.921C86.8805 134.156 86.6001 136.91 84.8249 138.685L65.1828 158.327C62.896 160.614 59.1101 160.384 57.3103 157.697C48.1533 144.026 42.8125 127.583 42.8125 109.892C42.8125 62.3908 81.32 23.8832 128.821 23.8832C146.512 23.8832 162.955 29.224 176.626 38.3811Z" fill="#BAB1FF"/>
</svg>
