<svg width="221" height="221" viewBox="0 0 221 221" fill="none" xmlns="http://www.w3.org/2000/svg">
<rect width="221" height="221" rx="84.6175" fill="black"/>
<path d="M44.3879 146.319L66.4178 107.877C68.2945 104.603 67.1446 100.456 63.8493 98.6149C60.5541 96.7742 56.3614 97.9368 54.4847 101.212L32.4549 139.653C30.5782 142.928 31.7281 147.075 35.0233 148.916C38.3185 150.757 42.5112 149.594 44.3879 146.319Z" fill="#C5F74F"/>
<path d="M91.8723 116.844L113.902 78.4022C115.779 75.1273 114.629 70.9803 111.334 69.1396C108.038 67.2989 103.846 68.4615 101.969 71.7364L79.9393 110.178C78.0625 113.453 79.2125 117.6 82.5077 119.441C85.8029 121.281 89.9956 120.119 91.8723 116.844Z" fill="#C5F74F"/>
<path d="M164.937 116.845L186.967 78.4035C188.843 75.1287 187.693 70.9817 184.398 69.141C181.103 67.3003 176.91 68.4629 175.034 71.7377L153.004 110.18C151.127 113.454 152.277 117.601 155.572 119.442C158.867 121.283 163.06 120.12 164.937 116.845Z" fill="#C5F74F"/>
<path d="M117.437 146.319L139.467 107.877C141.343 104.603 140.193 100.456 136.898 98.6149C133.603 96.7742 129.41 97.9368 127.534 101.212L105.504 139.653C103.627 142.928 104.777 147.075 108.072 148.916C111.367 150.757 115.56 149.594 117.437 146.319Z" fill="#C5F74F"/>
</svg>
