<svg width="221" height="221" viewBox="0 0 221 221" fill="none" xmlns="http://www.w3.org/2000/svg">
<rect width="221" height="221" rx="84.6175" fill="black"/>
<mask id="mask0_4129_424" style="mask-type:luminance" maskUnits="userSpaceOnUse" x="23" y="20" width="175" height="180">
<path d="M195.965 93.8372H112.535V128.43H160.558C156.081 150.407 137.36 163.023 112.535 163.023C83.2326 163.023 59.6279 139.419 59.6279 110.116C59.6279 80.814 83.2326 57.2093 112.535 57.2093C125.151 57.2093 136.546 61.6862 145.5 69.0118L171.547 42.9651C155.674 29.1279 135.326 20.5814 112.535 20.5814C62.8837 20.5814 23 60.4651 23 110.116C23 159.767 62.8837 199.651 112.535 199.651C157.302 199.651 198 167.093 198 110.116C198 104.826 197.186 99.1279 195.965 93.8372Z" fill="white"/>
</mask>
<g mask="url(#mask0_4129_424)">
<path d="M14.8613 163.023V57.2089L84.0474 110.116L14.8613 163.023Z" fill="#FBBC05"/>
</g>
<mask id="mask1_4129_424" style="mask-type:luminance" maskUnits="userSpaceOnUse" x="23" y="20" width="175" height="180">
<path d="M195.965 93.8372H112.535V128.43H160.558C156.081 150.407 137.36 163.023 112.535 163.023C83.2326 163.023 59.6279 139.419 59.6279 110.116C59.6279 80.814 83.2326 57.2093 112.535 57.2093C125.151 57.2093 136.546 61.6862 145.5 69.0118L171.547 42.9651C155.674 29.1279 135.326 20.5814 112.535 20.5814C62.8837 20.5814 23 60.4651 23 110.116C23 159.767 62.8837 199.651 112.535 199.651C157.302 199.651 198 167.093 198 110.116C198 104.826 197.186 99.1279 195.965 93.8372Z" fill="white"/>
</mask>
<g mask="url(#mask1_4129_424)">
<path d="M14.8613 57.209L84.0474 110.116L112.536 85.2905L210.21 69.4183V12.4415H14.8613V57.209Z" fill="#EA4335"/>
</g>
<mask id="mask2_4129_424" style="mask-type:luminance" maskUnits="userSpaceOnUse" x="23" y="20" width="175" height="180">
<path d="M195.965 93.8372H112.535V128.43H160.558C156.081 150.407 137.36 163.023 112.535 163.023C83.2326 163.023 59.6279 139.419 59.6279 110.116C59.6279 80.814 83.2326 57.2093 112.535 57.2093C125.151 57.2093 136.546 61.6862 145.5 69.0118L171.547 42.9651C155.674 29.1279 135.326 20.5814 112.535 20.5814C62.8837 20.5814 23 60.4651 23 110.116C23 159.767 62.8837 199.651 112.535 199.651C157.302 199.651 198 167.093 198 110.116C198 104.826 197.186 99.1279 195.965 93.8372Z" fill="white"/>
</mask>
<g mask="url(#mask2_4129_424)">
<path d="M14.8613 163.023L136.954 69.4183L169.105 73.488L210.21 12.4415V207.79H14.8613V163.023Z" fill="#34A853"/>
</g>
<mask id="mask3_4129_424" style="mask-type:luminance" maskUnits="userSpaceOnUse" x="23" y="20" width="175" height="180">
<path d="M195.965 93.8372H112.535V128.43H160.558C156.081 150.407 137.36 163.023 112.535 163.023C83.2326 163.023 59.6279 139.419 59.6279 110.116C59.6279 80.814 83.2326 57.2093 112.535 57.2093C125.151 57.2093 136.546 61.6862 145.5 69.0118L171.547 42.9651C155.674 29.1279 135.326 20.5814 112.535 20.5814C62.8837 20.5814 23 60.4651 23 110.116C23 159.767 62.8837 199.651 112.535 199.651C157.302 199.651 198 167.093 198 110.116C198 104.826 197.186 99.1279 195.965 93.8372Z" fill="white"/>
</mask>
<g mask="url(#mask3_4129_424)">
<path d="M210.211 207.79L84.0486 110.116L67.7695 97.9065L210.211 57.2089V207.79Z" fill="#4285F4"/>
</g>
</svg>
