<svg width="221" height="221" viewBox="0 0 221 221" fill="none" xmlns="http://www.w3.org/2000/svg">
<rect width="221" height="221" rx="84.6175" fill="black"/>
<path fill-rule="evenodd" clip-rule="evenodd" d="M181.611 155.619C172.442 155.39 165.444 156.192 159.367 158.828C157.65 159.517 155.011 159.517 154.669 161.696C155.586 162.609 155.812 164.102 156.501 165.366C157.992 167.661 160.402 170.753 162.579 172.359C164.874 174.196 167.282 176.029 169.803 177.635C174.39 180.385 179.435 181.875 183.675 184.633C186.314 186.234 188.835 188.302 191.359 190.135C192.502 191.052 193.422 192.43 194.913 193V192.774C194.111 191.741 193.88 190.25 193.191 189.099L189.753 185.66C186.43 181.305 182.184 177.404 177.71 174.196C174.156 171.673 166.13 168.119 164.64 163.991C164.524 163.876 164.409 163.876 164.409 163.76C166.932 163.413 169.916 162.501 172.208 161.923C176.109 160.895 179.661 161.121 183.672 160.09C185.51 159.515 187.342 159.057 189.18 158.484V157.451C187.116 155.387 185.741 152.522 183.449 150.687C177.602 145.643 171.178 140.711 164.643 136.584C160.973 134.176 156.501 132.685 152.605 130.737C151.341 130.164 149.046 129.82 148.134 128.674C146.065 126.15 145.037 122.825 143.431 119.844C140.067 113.304 136.932 106.649 134.03 99.8911C132.082 95.4196 130.702 90.948 128.299 86.8182C116.373 67.3258 103.644 55.5172 83.8099 43.9349C79.5696 41.5269 74.525 40.4964 69.1334 39.2346C66.268 39.0033 63.4026 38.8902 60.5346 38.6589C58.8128 37.9702 56.9805 35.7935 55.2587 34.7604C48.7235 30.6332 31.8677 21.5744 27.0492 33.4986C23.9525 40.9512 31.6364 48.2908 34.3862 52.0762C36.3393 54.7129 38.7421 57.6965 40.1221 60.675C41.0344 62.6229 41.1501 64.5735 41.9545 66.6371C43.9024 71.7974 45.5086 77.4151 47.9165 82.1154C49.1758 84.5233 50.5507 87.0469 52.1568 89.2262C53.0743 90.488 54.7961 91.0611 55.0222 93.1247C53.4161 95.417 53.3056 98.8581 52.3881 101.723C48.374 114.681 49.8645 130.619 55.8266 140.248C57.6641 143.114 61.9043 149.42 67.869 147.015C73.0293 144.836 71.8805 138.413 73.3711 132.567C73.718 131.305 73.4867 130.388 74.1729 129.47V129.699C75.6634 132.909 77.2696 136.006 78.8757 139.1C82.3142 144.72 88.5076 150.682 93.7835 154.578C96.4177 156.642 98.5969 160.198 102.151 161.342V161.111H101.809C101.121 160.083 100.087 159.623 99.2856 158.818C97.222 156.755 94.9297 154.231 93.2079 151.939C88.5102 145.517 84.2673 138.408 80.3688 131.069C78.5314 127.515 76.9252 123.616 75.4398 120.062C74.8616 118.687 74.8616 116.624 73.6024 115.819C71.8805 118.456 69.4778 120.635 68.0952 123.732C66.0316 128.663 65.6898 134.739 65.0036 140.932C64.541 141.161 64.6567 141.045 64.4254 141.276C60.7607 140.359 59.4963 136.573 58.1215 133.364C54.7986 125.222 54.1074 112.152 57.0884 102.749C57.8902 100.341 61.4495 92.7726 59.9589 90.4803C59.2651 88.3011 57.0884 86.9262 55.8292 85.2069C54.223 83.1433 52.7325 80.391 51.5889 77.983C48.8392 71.5609 47.5748 64.4527 44.5912 58.0331C43.1006 54.9365 40.8109 51.8398 38.8603 49.2031C36.6811 46.1064 34.2731 43.9297 32.5564 40.2599C31.9834 38.9981 31.1816 36.9345 31.9834 35.5571C32.3252 34.6396 32.6721 34.2953 33.5844 33.9509C35.0749 32.8048 39.3204 34.4109 40.9214 34.9814C45.0512 36.8163 48.6053 38.4225 52.1594 40.8305C53.8812 41.9766 55.603 44.1533 57.6666 44.7289H59.9615C63.6313 45.5307 67.7559 44.9577 71.1944 45.9907C77.2721 47.8231 82.7742 50.691 87.7084 53.9034C102.842 63.4196 115.113 76.9499 123.597 93.117C124.971 95.7537 125.545 98.1616 126.693 100.914C129.104 106.534 132.195 112.265 134.603 117.654C136.898 123.159 139.306 128.663 142.629 133.132C144.466 135.54 151.343 136.802 154.44 138.061C156.619 138.979 160.171 140.009 162.24 141.274C166.251 143.566 170.034 146.434 173.82 149.071C175.649 150.345 181.38 153.211 181.611 155.619Z" fill="white"/>
<path fill-rule="evenodd" clip-rule="evenodd" d="M64.6586 55.98C63.0752 55.9805 61.4977 56.1738 59.9609 56.5556V56.7843H60.3027C61.2202 58.6192 62.8263 59.881 63.9725 61.4846C64.7743 63.3195 65.6943 65.1544 66.4961 66.9893L66.8379 66.6449C68.4441 65.6144 69.1328 63.7795 69.1328 60.9141C68.5597 60.2254 68.4441 59.4236 67.8735 58.6192C67.0692 57.4705 65.6943 56.8974 64.6586 55.98Z" fill="white"/>
</svg>
