<svg width="221" height="221" viewBox="0 0 221 221" fill="none" xmlns="http://www.w3.org/2000/svg">
<rect width="221" height="221" rx="84.6175" fill="black"/>
<path fill-rule="evenodd" clip-rule="evenodd" d="M48.1797 66.6619C48.1797 54.1217 57.8781 43.9558 69.8417 43.9558H152.157C164.121 43.9558 173.819 54.1217 173.819 66.6619V140.045C173.819 153.019 158.157 158.65 150.561 148.407L126.813 116.385V155.215C126.813 166.502 118.084 175.651 107.317 175.651H69.8417C57.8781 175.651 48.1797 165.485 48.1797 152.945V66.6619ZM69.8417 62.1207C67.449 62.1207 65.5093 64.1538 65.5093 66.6619V152.945C65.5093 155.453 67.449 157.486 69.8417 157.486H107.967C109.163 157.486 109.483 156.469 109.483 155.215V103.144C109.483 90.1709 125.146 84.5402 132.741 94.783L156.49 126.804V66.6619C156.49 64.1538 156.716 62.1207 154.324 62.1207H69.8417Z" fill="#00E0D9"/>
<path fill-rule="evenodd" clip-rule="evenodd" d="M48.1797 66.6619C48.1797 54.1217 57.8781 43.9558 69.8417 43.9558H152.157C164.121 43.9558 173.819 54.1217 173.819 66.6619V140.045C173.819 153.019 158.157 158.65 150.561 148.407L126.813 116.385V155.215C126.813 166.502 118.084 175.651 107.317 175.651H69.8417C57.8781 175.651 48.1797 165.485 48.1797 152.945V66.6619ZM69.8417 62.1207C67.449 62.1207 65.5093 64.1538 65.5093 66.6619V152.945C65.5093 155.453 67.449 157.486 69.8417 157.486H107.967C109.163 157.486 109.483 156.469 109.483 155.215V103.144C109.483 90.1709 125.146 84.5402 132.741 94.783L156.49 126.804V66.6619C156.49 64.1538 156.716 62.1207 154.324 62.1207H69.8417Z" fill="url(#paint0_linear_4129_424)"/>
<path fill-rule="evenodd" clip-rule="evenodd" d="M48.1797 66.6619C48.1797 54.1217 57.8781 43.9558 69.8417 43.9558H152.157C164.121 43.9558 173.819 54.1217 173.819 66.6619V140.045C173.819 153.019 158.157 158.65 150.561 148.407L126.813 116.385V155.215C126.813 166.502 118.084 175.651 107.317 175.651H69.8417C57.8781 175.651 48.1797 165.485 48.1797 152.945V66.6619ZM69.8417 62.1207C67.449 62.1207 65.5093 64.1538 65.5093 66.6619V152.945C65.5093 155.453 67.449 157.486 69.8417 157.486H107.967C109.163 157.486 109.483 156.469 109.483 155.215V103.144C109.483 90.1709 125.146 84.5402 132.741 94.783L156.49 126.804V66.6619C156.49 64.1538 156.716 62.1207 154.324 62.1207H69.8417Z" fill="url(#paint1_linear_4129_424)" fill-opacity="0.4"/>
<path d="M152.161 43.9558C164.124 43.9558 173.823 54.1217 173.823 66.6619V140.045C173.823 153.019 158.16 158.65 150.564 148.407L126.816 116.385V155.215C126.816 166.502 118.088 175.651 107.32 175.651C108.517 175.651 109.487 174.635 109.487 173.381V103.144C109.487 90.1709 125.149 84.5402 132.745 94.783L156.493 126.804V48.497C156.493 45.989 154.554 43.9558 152.161 43.9558Z" fill="#63F655"/>
<defs>
<linearGradient id="paint0_linear_4129_424" x1="173.819" y1="175.651" x2="57.4463" y2="49.3909" gradientUnits="userSpaceOnUse">
<stop stop-color="#62F755"/>
<stop offset="1" stop-color="#8FF986" stop-opacity="0"/>
</linearGradient>
<linearGradient id="paint1_linear_4129_424" x1="173.819" y1="175.651" x2="98.302" y2="147.628" gradientUnits="userSpaceOnUse">
<stop stop-opacity="0.9"/>
<stop offset="1" stop-color="#1A1A1A" stop-opacity="0"/>
</linearGradient>
</defs>
</svg>
