<svg width="246" height="246" viewBox="0 0 246 246" fill="none" xmlns="http://www.w3.org/2000/svg">
<rect x="13" y="13" width="221" height="221" rx="84.6175" fill="black"/>
<path d="M72.0124 191.29H69.8148L58.876 180.351V178.153L75.5876 161.442H87.166L88.7076 162.983V174.562L71.996 191.273L72.0124 191.29Z" fill="#05BDBA"/>
<path d="M58.876 67.601V65.4034L69.8148 54.4646H72.0124L88.724 71.1762V82.7546L87.1824 84.2962H75.604L58.8924 67.5846L58.876 67.601Z" fill="#05BDBA"/>
<path d="M155.144 156.03H139.236L137.908 154.701V117.457C137.908 110.831 135.3 105.698 127.313 105.518C123.197 105.403 118.49 105.518 113.472 105.714L112.717 106.485V154.685L111.389 156.013H95.4807L94.1523 154.685V91.0691L95.4807 89.7407H131.282C145.189 89.7407 156.472 101.024 156.472 114.931V154.701L155.144 156.03Z" fill="white"/>
<path d="M74.2756 132.184H10.6436L9.31519 130.855V114.915L10.6436 113.586H74.2756L75.604 114.915V130.855L74.2756 132.184Z" fill="#05BDBA"/>
<path d="M239.998 132.184H176.366L175.037 130.855V114.915L176.366 113.586H239.998L241.326 114.915V130.855L239.998 132.184Z" fill="#05BDBA"/>
<path d="M116.145 69.8642V22.1402L117.473 20.8118H133.414L134.743 22.1402V69.8642L133.414 71.1926H117.473L116.145 69.8642Z" fill="#05BDBA"/>
<path d="M116.145 223.63V175.906L117.473 174.578H133.414L134.743 175.906V223.63L133.414 224.959H117.473L116.145 223.63Z" fill="#05BDBA"/>
</svg>
