<svg width="221" height="221" viewBox="0 0 221 221" fill="none" xmlns="http://www.w3.org/2000/svg">
<rect width="221" height="221" rx="84.6175" fill="black"/>
<path d="M111.51 216.117C108.686 216.117 105.882 215.376 103.406 213.951L77.6097 198.679C73.7569 196.524 75.6369 195.762 76.9077 195.323C82.0448 193.524 83.0873 193.118 88.5707 190.004C89.1471 189.675 89.9014 189.791 90.4913 190.139L110.309 201.899C111.024 202.286 112.04 202.286 112.703 201.899L189.973 157.297C190.689 156.891 191.153 156.059 191.153 155.208V66.0431C191.153 65.1534 190.689 64.3604 189.958 63.9155L112.719 19.3522C112.003 18.9267 111.055 18.9267 110.34 19.3522L33.1161 63.9155C32.3676 64.341 31.8918 65.1727 31.8918 66.0237V155.189C31.8918 156.04 32.356 156.852 33.091 157.259L54.2508 169.482C65.7397 175.227 72.7608 168.457 72.7608 161.649V73.6444C72.7608 72.3872 73.7472 71.4201 75.0044 71.4201H84.7913C86.0098 71.4201 87.0156 72.3872 87.0156 73.6444V161.688C87.0156 177.006 78.66 185.807 64.1344 185.807C59.6665 185.807 56.1463 185.807 46.3207 180.971L26.0506 169.289C21.0411 166.388 17.9464 160.972 17.9464 155.189V66.0237C17.9464 60.2212 21.0411 54.8056 26.0506 51.943L103.398 7.32171C108.291 4.55585 114.79 4.55585 119.645 7.32171L196.896 51.9623C201.886 54.8443 205 60.2406 205 66.0431V155.208C205 160.991 201.886 166.388 196.896 169.289L119.645 213.91C117.169 215.342 114.365 216.077 111.502 216.077" fill="#59AC51"/>
<path d="M135.378 154.677C101.568 154.677 94.4796 139.157 94.4796 126.14C94.4796 124.902 95.4776 123.916 96.7174 123.916H106.698C107.8 123.916 108.729 124.718 108.903 125.807C110.411 135.977 114.899 141.107 135.343 141.107C151.629 141.107 158.553 137.428 158.553 128.792C158.553 123.821 156.58 120.127 131.281 117.651C110.121 115.562 97.0463 110.901 97.0463 93.9767C97.0463 78.3873 110.199 69.1033 132.229 69.1033C156.967 69.1033 169.229 77.691 170.777 96.143C170.835 96.7812 170.603 97.4002 170.177 97.8644C169.752 98.3092 169.152 98.58 168.533 98.58H158.495C157.45 98.58 156.541 97.845 156.329 96.8393C153.911 86.1433 148.07 82.7198 132.19 82.7198C114.415 82.7198 112.346 88.9092 112.346 93.5512C112.346 99.1796 114.783 100.824 138.766 103.996C162.518 107.148 173.794 111.597 173.794 128.289C173.794 145.116 159.752 154.768 135.265 154.768" fill="#59AC51"/>
</svg>
