<svg width="221" height="221" viewBox="0 0 221 221" fill="none" xmlns="http://www.w3.org/2000/svg">
<rect width="221" height="221" rx="84.6175" fill="black"/>
<path d="M173.682 90.3475C170.636 119.539 145.113 141.236 115.763 141.236H104.462V167.954C104.462 182.757 92.4628 194.757 77.6604 194.757H56.742C51.5612 194.757 47.3613 190.557 47.3613 185.376V130.369L61.4271 110.634C63.9727 107.062 68.6524 105.729 72.6979 107.424L80.6986 110.775C84.7315 112.464 89.3964 111.136 91.9354 107.577L110.689 81.285C113.222 77.7344 117.877 76.4129 121.897 78.103L137.308 84.5813C141.337 86.2749 146.001 84.9497 148.538 81.3909L166.572 56.0892C172.225 66.0278 174.988 77.8346 173.682 90.3475Z" fill="url(#paint0_linear_4197_921)"/>
<path d="M56.5525 107.853C58.851 104.628 62.1946 102.147 66.0836 101.399C69.116 100.816 72.1055 101.122 74.8704 102.28L82.8691 105.63C83.3301 105.823 83.8152 105.921 84.3111 105.921C85.53 105.921 86.6809 105.328 87.3896 104.334L105.8 78.5239C108.098 75.302 111.441 72.8256 115.327 72.0793C118.348 71.4992 121.32 71.8032 124.061 72.9556L139.472 79.434C139.937 79.6296 140.426 79.7286 140.925 79.7286C142.14 79.7286 143.286 79.1385 143.991 78.1502L163.309 51.0472C152.971 36.6365 136.088 27.2433 117.005 27.2433H56.742C51.5612 27.2433 47.3613 31.4432 47.3613 36.6241V120.748L56.5525 107.853Z" fill="url(#paint1_linear_4197_921)"/>
<defs>
<linearGradient id="paint0_linear_4197_921" x1="88.7967" y1="90.1826" x2="124.063" y2="151.899" gradientUnits="userSpaceOnUse">
<stop stop-color="#909CF7"/>
<stop offset="1" stop-color="#4B38D8"/>
</linearGradient>
<linearGradient id="paint1_linear_4197_921" x1="69.6512" y1="23.4511" x2="105.994" y2="87.0506" gradientUnits="userSpaceOnUse">
<stop stop-color="#909CF7"/>
<stop offset="1" stop-color="#4B38D8"/>
</linearGradient>
</defs>
</svg>
