<svg width="221" height="221" viewBox="0 0 221 221" fill="none" xmlns="http://www.w3.org/2000/svg">
<rect width="221" height="221" rx="84.6175" fill="black"/>
<path d="M187.519 125.038C186.597 122.245 184.181 120.3 181.058 119.833C179.585 119.614 177.898 119.707 175.902 120.119C172.423 120.837 169.842 121.11 167.959 121.163C175.069 109.158 180.85 95.4691 184.178 82.5829C189.561 61.7462 186.684 52.2538 183.324 47.9602C174.43 36.5955 161.453 30.4903 145.799 30.3035C137.447 30.2014 130.116 31.8502 126.292 33.0359C122.731 32.4076 118.902 32.0568 114.885 31.992C107.354 31.8718 100.701 33.5135 95.0155 36.8874C91.868 35.823 86.8163 34.3226 80.9826 33.3651C67.2621 31.1126 56.2038 32.8677 48.1151 38.5819C38.3206 45.5004 33.7801 57.5211 34.6198 74.3098C34.8865 79.6402 37.8683 95.8583 42.5631 111.239C45.2613 120.08 48.1385 127.421 51.1149 133.061C55.3358 141.059 59.8522 145.769 64.9225 147.461C67.7643 148.407 72.9276 149.071 78.3583 144.547C79.0467 145.381 79.9651 146.21 81.1839 146.979C82.7318 147.955 84.6245 148.753 86.5148 149.226C93.327 150.928 99.7079 150.503 105.152 148.115C105.185 149.084 105.211 150.009 105.233 150.808C105.269 152.103 105.305 153.374 105.352 154.562C105.675 162.595 106.222 168.842 107.841 173.212C107.93 173.452 108.049 173.819 108.176 174.207C108.984 176.681 110.334 180.822 113.771 184.065C117.33 187.425 121.635 188.455 125.578 188.455C127.556 188.455 129.442 188.195 131.097 187.841C136.996 186.576 143.695 184.651 148.541 177.75C153.123 171.227 155.35 161.402 155.754 145.921C155.806 145.483 155.854 145.065 155.9 144.666L155.996 143.848L157.076 143.943L157.354 143.962C163.362 144.236 170.708 142.962 175.219 140.866C178.784 139.212 190.209 133.18 187.519 125.038Z" fill="black"/>
<path d="M177.245 126.621C159.381 130.306 158.152 124.258 158.152 124.258C177.013 96.2711 184.898 60.7456 178.094 52.0509C159.531 28.3334 127.398 39.5503 126.862 39.841L126.69 39.8723C123.16 39.1394 119.211 38.7034 114.771 38.6307C106.689 38.4985 100.557 40.7498 95.9041 44.2782C95.9041 44.2782 38.582 20.6634 41.2484 73.9778C41.8155 85.3196 57.505 159.797 76.2183 137.302C83.0581 129.076 89.6673 122.12 89.6673 122.12C92.9494 124.301 96.879 125.413 100.998 125.014L101.319 124.742C101.219 125.763 101.264 126.762 101.446 127.945C96.6255 133.331 98.0425 134.277 88.4053 136.261C78.6534 138.271 84.382 141.848 88.1224 142.784C92.6569 143.917 103.147 145.524 110.235 135.601L109.953 136.733C111.841 138.247 113.167 146.574 112.945 154.124C112.723 161.673 112.575 166.857 114.062 170.905C115.551 174.954 117.034 184.063 129.704 181.348C140.289 179.08 145.775 173.201 146.539 163.394C147.08 156.423 148.306 157.454 148.383 151.22L149.366 148.27C150.5 138.82 149.546 135.771 156.068 137.189L157.654 137.328C162.453 137.546 168.736 136.556 172.424 134.842C180.363 131.157 185.072 125.005 177.243 126.621H177.245Z" fill="#336791"/>
<path d="M99.2623 79.0499C97.6525 78.8259 96.1946 79.0331 95.457 79.5917C95.0425 79.9059 94.914 80.2699 94.8792 80.5204C94.7867 81.1841 95.2516 81.9181 95.5375 82.2966C96.346 83.3682 97.5269 84.1046 98.6958 84.2668C98.8652 84.2908 99.034 84.3016 99.2016 84.3016C101.151 84.3016 102.923 82.7837 103.08 81.6635C103.275 80.2603 101.238 79.3244 99.2623 79.0499ZM152.592 79.0944C152.438 77.9946 150.481 77.681 148.624 77.9393C146.769 78.1976 144.971 79.0349 145.121 80.1372C145.241 80.9943 146.789 82.4575 148.621 82.4575C148.776 82.4575 148.932 82.4473 149.09 82.4251C150.313 82.2557 151.21 81.479 151.637 81.0316C152.285 80.3492 152.661 79.5887 152.592 79.0944Z" fill="white"/>
<path d="M183.193 126.203C182.512 124.143 180.319 123.48 176.677 124.232C165.862 126.464 161.989 124.918 160.717 123.982C169.123 111.176 176.039 95.695 179.77 81.2519C181.537 74.4103 182.513 68.0564 182.593 62.8774C182.681 57.1932 181.713 53.0162 179.716 50.4645C171.666 40.178 159.851 34.6603 145.549 34.5089C135.716 34.3984 127.409 36.9146 125.799 37.6222C122.407 36.7788 118.71 36.2611 114.685 36.195C107.304 36.0755 100.924 37.8426 95.6414 41.4448C93.3468 40.5907 87.417 38.555 80.1651 37.3867C67.6279 35.3685 57.6652 36.8978 50.5557 41.9344C42.0724 47.9447 38.156 58.6883 38.9147 73.8661C39.1699 78.9724 42.0796 94.6811 46.6711 109.725C52.7151 129.525 59.2852 140.735 66.1977 143.041C67.0068 143.31 67.9397 143.499 68.9686 143.499C71.4902 143.499 74.5819 142.362 77.7985 138.495C81.7218 133.789 85.7802 129.196 89.9687 124.724C92.6861 126.183 95.6714 126.997 98.7247 127.079C98.7307 127.159 98.7385 127.239 98.7457 127.318C98.2201 127.945 97.7055 128.581 97.202 129.225C95.0864 131.911 94.6461 132.47 87.8363 133.872C85.8991 134.272 80.7544 135.332 80.6787 138.939C80.597 142.879 86.7605 144.534 87.4627 144.709C89.9098 145.322 92.2674 145.624 94.5158 145.624C99.9837 145.624 104.796 143.827 108.641 140.35C108.523 154.397 109.108 168.239 110.795 172.456C112.177 175.909 115.551 184.346 126.211 184.346C127.775 184.346 129.496 184.164 131.39 183.758C142.515 181.373 147.347 176.456 149.215 165.616C150.215 159.822 151.931 145.988 152.739 138.567C154.442 139.099 156.635 139.342 159.006 139.342C163.951 139.342 169.657 138.291 173.235 136.63C177.255 134.763 184.508 130.183 183.193 126.203ZM156.7 76.0585C156.663 78.2492 156.361 80.238 156.042 82.3139C155.698 84.5466 155.342 86.855 155.253 89.6571C155.164 92.3841 155.505 95.2193 155.834 97.9614C156.5 103.5 157.183 109.201 154.539 114.827C154.1 114.049 153.709 113.245 153.368 112.419C153.039 111.622 152.326 110.343 151.337 108.572C147.494 101.679 138.493 85.5365 143.1 78.9495C144.473 76.989 147.956 74.9731 156.7 76.0585ZM146.101 38.9449C158.916 39.2278 169.053 44.0217 176.23 53.1928C181.734 60.2272 175.673 92.2352 158.126 119.849C157.949 119.624 157.772 119.401 157.593 119.178L157.371 118.9C161.906 111.412 161.019 104.002 160.23 97.4334C159.905 94.7376 159.599 92.1913 159.677 89.7995C159.758 87.2646 160.093 85.0902 160.417 82.9879C160.815 80.3972 161.221 77.7164 161.109 74.5562C161.193 74.2247 161.226 73.833 161.182 73.3681C160.897 70.3377 157.437 61.2682 150.385 53.0594C146.528 48.5694 140.903 43.5448 133.222 40.1558C136.525 39.471 141.043 38.8325 146.101 38.9449ZM74.3945 135.665C70.8505 139.926 68.4034 139.109 67.5985 138.841C62.3546 137.092 56.2698 126.009 50.9052 108.433C46.2633 93.2251 43.5506 77.9326 43.3356 73.6444C42.658 60.0825 45.9455 50.6309 53.1073 45.5516C64.7627 37.2864 83.9253 42.2335 91.6253 44.7425C91.5148 44.8519 91.3995 44.954 91.2902 45.0651C78.6544 57.8257 78.9542 79.6277 78.9854 80.9606C78.9842 81.4748 79.0275 82.2028 79.0863 83.2041C79.3038 86.8712 79.7086 93.696 78.6274 101.425C77.6231 108.607 79.8372 115.637 84.7008 120.712C85.1999 121.232 85.7246 121.726 86.2727 122.194C84.1079 124.513 79.4029 129.64 74.3945 135.665ZM87.897 117.649C83.977 113.558 82.1966 107.869 83.0117 102.038C84.153 93.8732 83.7319 86.7625 83.5055 82.9422C83.4736 82.4076 83.4454 81.9391 83.4292 81.5697C85.275 79.9328 93.8292 75.3497 99.9296 76.7475C102.713 77.3848 104.409 79.2805 105.115 82.541C108.764 99.4216 105.598 106.457 103.053 112.111C102.529 113.276 102.033 114.377 101.61 115.516L101.282 116.397C100.452 118.623 99.6797 120.693 99.201 122.658C95.0335 122.646 90.9796 120.866 87.897 117.648V117.649ZM88.5367 140.414C87.3197 140.11 86.2253 139.582 85.5832 139.145C86.1196 138.892 87.074 138.549 88.7295 138.208C96.7406 136.559 97.978 135.395 100.68 131.964C101.299 131.177 102.001 130.286 102.974 129.2L102.975 129.199C104.423 127.577 105.086 127.852 106.287 128.351C107.261 128.753 108.209 129.974 108.594 131.317C108.776 131.951 108.98 133.155 108.311 134.092C102.667 141.994 94.4431 141.893 88.5367 140.414ZM130.463 179.429C120.662 181.529 117.192 176.529 114.906 170.812C113.43 167.121 112.704 150.479 113.219 132.101C113.225 131.856 113.191 131.62 113.123 131.398C113.063 130.959 112.972 130.525 112.849 130.099C112.084 127.425 110.219 125.188 107.982 124.261C107.093 123.892 105.461 123.217 103.501 123.718C103.919 121.995 104.644 120.05 105.43 117.943L105.76 117.057C106.131 116.058 106.597 115.023 107.09 113.928C109.752 108.012 113.399 99.91 109.441 81.6057C107.959 74.7497 103.008 71.4015 95.5033 72.1794C91.0042 72.6449 86.8878 74.4601 84.8347 75.5011C84.3933 75.7245 83.9896 75.9408 83.6124 76.151C84.1854 69.2433 86.3502 56.3337 94.4485 48.1658C99.5476 43.024 106.338 40.4844 114.612 40.6213C130.914 40.888 141.368 49.2542 147.268 56.2262C152.352 62.2335 155.105 68.2852 156.203 71.5493C147.941 70.7089 142.322 72.3398 139.474 76.4123C133.276 85.271 142.864 102.465 147.471 110.728C148.317 112.242 149.046 113.551 149.275 114.107C150.776 117.744 152.718 120.172 154.137 121.944C154.571 122.487 154.993 123.014 155.314 123.474C152.811 124.195 148.317 125.862 148.726 134.194C148.396 138.375 146.047 157.948 144.853 164.864C143.278 174 139.916 177.403 130.463 179.43V179.429ZM171.371 132.615C168.812 133.803 164.53 134.694 160.462 134.885C155.969 135.095 153.682 134.382 153.144 133.943C152.891 128.751 154.824 128.208 156.869 127.634C157.19 127.544 157.504 127.456 157.807 127.35C157.995 127.503 158.201 127.655 158.427 127.804C162.038 130.187 168.479 130.444 177.572 128.567L177.672 128.548C176.445 129.694 174.347 131.233 171.371 132.615Z" fill="white"/>
</svg>
