<svg width="221" height="221" viewBox="0 0 221 221" fill="none" xmlns="http://www.w3.org/2000/svg">
<rect width="221" height="221" rx="84.6175" fill="black"/>
<path d="M58.319 116.257C56.8576 119.181 52.6862 119.181 51.2247 116.257L47.7293 109.267C47.171 108.15 47.171 106.836 47.7293 105.719L51.2247 98.7287C52.6862 95.8054 56.8576 95.8054 58.319 98.7287L61.8146 105.719C62.3726 106.836 62.3726 108.15 61.8146 109.267L58.319 116.257ZM58.319 155.905C56.8576 158.828 52.6862 158.828 51.2247 155.905L47.7293 148.914C47.171 147.797 47.171 146.483 47.7293 145.367L51.2247 138.376C52.6862 135.453 56.8576 135.453 58.319 138.376L61.8146 145.367C62.3726 146.483 62.3726 147.797 61.8146 148.914L58.319 155.905Z" fill="white"/>
<path d="M15.123 140.856C15.123 137.323 19.3949 135.553 21.8933 138.052L40.0706 156.229C42.569 158.728 40.7995 162.999 37.2663 162.999H19.089C16.8986 162.999 15.123 161.224 15.123 159.033V140.856ZM15.123 121.71C15.123 122.761 15.5409 123.77 16.2846 124.514L53.6087 161.838C54.3524 162.581 55.3612 162.999 56.4129 162.999H76.9135C80.4467 162.999 82.2163 158.728 79.7178 156.229L21.8933 98.4046C19.3949 95.9061 15.123 97.6757 15.123 101.209V121.71ZM15.123 82.0623C15.123 83.1141 15.5409 84.1228 16.2846 84.8666L93.2558 161.838C93.9995 162.581 95.0084 162.999 96.0601 162.999H116.561C120.094 162.999 121.864 158.728 119.365 156.229L21.8933 58.7575C19.3949 56.2591 15.123 58.0285 15.123 61.5617V82.0623ZM54.7703 82.0623C54.7703 83.1141 55.1883 84.1228 55.9319 84.8666L127.294 156.229C129.793 158.728 134.065 156.958 134.065 153.425V132.924C134.065 131.873 133.647 130.864 132.903 130.12L61.5405 58.7574C59.0419 56.259 54.7703 58.0285 54.7703 61.5617V82.0623ZM101.188 58.7575C98.6891 56.259 94.4175 58.0285 94.4175 61.5617V82.0623C94.4175 83.1141 94.8355 84.1228 95.5791 84.8666L127.294 116.582C129.793 119.081 134.065 117.311 134.065 113.778V93.2771C134.065 92.2253 133.647 91.2164 132.903 90.4728L101.188 58.7575Z" fill="white"/>
<path d="M183.772 141.343L146.442 104.013C143.944 101.514 139.672 103.284 139.672 106.817V159.034C139.672 161.224 141.447 163 143.638 163H201.463C203.654 163 205.429 161.224 205.429 159.034V154.279C205.429 152.089 203.646 150.339 201.474 150.056C194.808 149.189 188.574 146.144 183.772 141.343ZM158.702 150.313C155.201 150.313 152.359 147.471 152.359 143.969C152.359 140.468 155.201 137.626 158.702 137.626C162.204 137.626 165.046 140.468 165.046 143.969C165.046 147.471 162.204 150.313 158.702 150.313Z" fill="white"/>
<path d="M15.123 159.033C15.123 161.224 16.8986 162.999 19.089 162.999H37.2663C40.7995 162.999 42.569 158.728 40.0706 156.229L21.8933 138.052C19.3949 135.553 15.123 137.323 15.123 140.856V159.033ZM54.7703 91.6344L21.8933 58.7574C19.3949 56.259 15.123 58.0285 15.123 61.5617V82.0622C15.123 83.114 15.5409 84.1228 16.2846 84.8665L54.7703 123.352V91.6344ZM21.8933 98.4046C19.3949 95.9061 15.123 97.6757 15.123 101.209V121.709C15.123 122.761 15.5409 123.77 16.2846 124.514L54.7703 162.999V131.282L21.8933 98.4046Z" fill="white"/>
<path d="M94.4167 93.2771C94.4167 92.2253 93.9991 91.2164 93.2551 90.4728L61.5397 58.7574C59.0416 56.259 54.7695 58.0285 54.7695 61.5617V82.0622C54.7695 83.114 55.1875 84.1228 55.9311 84.8665L94.4167 123.352V93.2771ZM54.7695 162.999H76.9128C80.446 162.999 82.2156 158.728 79.7171 156.229L54.7695 131.282V162.999ZM54.7695 91.6344V121.709C54.7695 122.761 55.1875 123.77 55.9311 124.514L94.4167 162.999V132.924C94.4167 131.873 93.9991 130.864 93.2551 130.12L54.7695 91.6344Z" fill="white"/>
</svg>
