<svg width="221" height="221" viewBox="0 0 221 221" fill="none" xmlns="http://www.w3.org/2000/svg">
<rect width="221" height="221" rx="84.6175" fill="black"/>
<path d="M111.588 25.7245L184.124 67.6032V151.36L111.588 193.239L39.0508 151.36V67.6032L111.588 25.7245Z" fill="#673AB8"/>
<path d="M58.8075 150.668C68.4503 163.011 99.0965 153.606 128.029 131.001C156.962 108.397 173.501 80.9369 163.858 68.5938C154.214 56.2512 123.569 65.656 94.6361 88.2603C65.7036 110.866 49.1646 138.325 58.8075 150.668ZM62.9273 147.449C59.7289 143.356 61.1264 135.321 67.2189 125.205C73.635 114.553 84.5263 102.793 97.8543 92.3801C111.183 81.9672 125.227 74.2437 137.115 70.5953C148.405 67.1311 156.54 67.7193 159.738 71.8126C162.936 75.9058 161.539 83.9415 155.446 94.0576C149.03 104.71 138.139 116.469 124.811 126.882C111.482 137.295 97.4373 145.019 85.5497 148.666C74.2601 152.131 66.1252 151.542 62.9273 147.449Z" fill="white"/>
<path d="M163.858 150.668C173.501 138.325 156.962 110.865 128.029 88.2603C99.0967 65.656 68.45 56.2512 58.8077 68.5938C49.1643 80.9363 65.7038 108.397 94.6363 131.001C123.569 153.606 154.214 163.011 163.858 150.668ZM159.738 147.449C156.54 151.543 148.405 152.131 137.116 148.666C125.228 145.019 111.183 137.295 97.8551 126.882C84.5265 116.469 73.6346 104.71 67.2197 94.0576C61.1266 83.9415 59.7291 75.9064 62.927 71.8126C66.1254 67.7193 74.2603 67.1311 85.5494 70.5953C97.4375 74.2437 111.482 81.9672 124.81 92.3801C138.139 102.793 149.03 114.553 155.446 125.205C161.539 135.32 162.936 143.355 159.738 147.449Z" fill="white"/>
<path d="M111.336 120.74C117.472 120.74 122.445 115.766 122.445 109.631C122.445 103.496 117.472 98.5219 111.336 98.5219C105.2 98.5219 100.227 103.496 100.227 109.631C100.227 115.766 105.2 120.74 111.336 120.74Z" fill="white"/>
</svg>
