<svg width="221" height="221" viewBox="0 0 221 221" fill="none" xmlns="http://www.w3.org/2000/svg">
<rect width="221" height="221" rx="84.6175" fill="black"/>
<path d="M88.8193 166.996L88.8198 166.994L111.649 57.6809C112.255 54.78 116.23 54.3434 117.485 57.0045L117.485 57.0051L159.747 146.75L159.748 146.753C159.99 147.27 160.117 147.834 160.12 148.406C160.122 148.977 160.001 149.542 159.764 150.062C159.528 150.582 159.181 151.045 158.748 151.418C158.318 151.788 157.814 152.063 157.264 152.222C157.263 152.222 157.262 152.222 157.261 152.223L93.3702 171.115L88.8193 166.996ZM88.8193 166.996C88.2726 169.647 90.7885 171.882 93.3688 171.116L88.8193 166.996ZM167.156 147.285L167.27 147.526C167.644 148.401 167.84 149.343 167.847 150.296C167.854 151.339 167.634 152.371 167.201 153.32C166.762 154.275 166.123 155.125 165.327 155.813C164.53 156.5 163.595 157.009 162.584 157.305L162.582 157.306L87.2781 179.58L87.2769 179.58C85.7375 180.038 84.0914 179.986 82.5841 179.432C81.0768 178.877 79.7891 177.851 78.9131 176.505L52.966 136.323L52.9642 136.32C52.2237 135.182 51.823 133.857 51.809 132.499C51.795 131.142 52.1684 129.808 52.8853 128.655L52.8867 128.653L105.962 42.6889L105.965 42.6845C106.618 41.6123 107.553 40.7399 108.668 40.162C109.783 39.5841 111.034 39.3229 112.287 39.4069L112.287 39.407L112.301 39.4077C113.553 39.4725 114.765 39.8747 115.807 40.5718C116.849 41.2685 117.684 42.2337 118.222 43.3655C118.222 43.3662 118.223 43.3668 118.223 43.3674L167.156 147.285Z" fill="black" stroke="white" stroke-width="1.79695"/>
<path d="M85.9492 174.163L112.904 46.5795L164.117 150.803L85.9492 174.163Z" fill="white"/>
</svg>
