<svg width="221" height="221" viewBox="0 0 221 221" fill="none" xmlns="http://www.w3.org/2000/svg">
<rect width="221" height="221" rx="84.6175" fill="black"/>
<path d="M205.682 109.501C205.682 97.0399 190.077 85.2307 166.152 77.9075C171.673 53.5222 169.219 34.1213 158.407 27.91C155.915 26.453 153.001 25.7629 149.818 25.7629V34.313C151.582 34.313 153.001 34.6581 154.189 35.3099C159.404 38.3006 161.666 49.688 159.902 64.3345C159.481 67.9387 158.79 71.7345 157.947 75.607C150.432 73.7666 142.227 72.3479 133.6 71.4277C128.424 64.3345 123.056 57.8931 117.65 52.2569C130.149 40.6394 141.882 34.2747 149.857 34.2747V25.7245C139.313 25.7245 125.51 33.2395 111.553 46.2756C97.5971 33.3162 83.7941 25.8779 73.2502 25.8779V34.4281C81.1869 34.4281 92.9578 40.7544 105.457 52.2953C100.089 57.9315 94.7215 64.3345 89.6221 71.4277C80.9568 72.3479 72.7517 73.7666 65.2368 75.6453C64.3549 71.8112 63.7031 68.092 63.243 64.5262C61.4409 49.8797 63.6648 38.4923 68.8409 35.4633C69.9911 34.7731 71.4865 34.4664 73.2502 34.4664V25.9162C70.0295 25.9162 67.1155 26.6064 64.585 28.0634C53.811 34.2747 51.3954 53.6372 56.955 77.9458C33.1065 85.3074 17.5781 97.0783 17.5781 109.501C17.5781 121.962 33.1832 133.771 57.1083 141.094C51.5871 165.48 54.041 184.881 64.8534 191.092C67.3456 192.549 70.2595 193.239 73.4802 193.239C84.0242 193.239 97.8272 185.724 111.784 172.688C125.74 185.647 139.543 193.086 150.087 193.086C153.307 193.086 156.221 192.396 158.752 190.939C169.526 184.727 171.942 165.365 166.382 141.056C190.154 133.733 205.682 121.924 205.682 109.501ZM155.761 83.9271C154.343 88.8732 152.579 93.9726 150.585 99.0721C149.013 96.0047 147.365 92.9374 145.562 89.8701C143.799 86.8027 141.92 83.8121 140.041 80.8981C145.486 81.7033 150.739 82.7002 155.761 83.9271ZM138.201 124.761C135.21 129.937 132.143 134.845 128.961 139.407C123.248 139.906 117.458 140.174 111.63 140.174C105.841 140.174 100.051 139.906 94.3764 139.446C91.1941 134.883 88.0884 130.014 85.0977 124.876C82.1838 119.853 79.5382 114.754 77.1227 109.616C79.4999 104.478 82.1838 99.3404 85.0594 94.3177C88.05 89.1416 91.1174 84.2338 94.2997 79.6712C100.013 79.1727 105.802 78.9044 111.63 78.9044C117.42 78.9044 123.209 79.1728 128.884 79.6329C132.066 84.1955 135.172 89.0649 138.163 94.2027C141.077 99.2254 143.722 104.325 146.138 109.463C143.722 114.6 141.077 119.738 138.201 124.761ZM150.585 119.777C152.656 124.914 154.419 130.052 155.876 135.037C150.854 136.263 145.562 137.299 140.08 138.104C141.958 135.152 143.837 132.123 145.601 129.017C147.365 125.95 149.013 122.844 150.585 119.777ZM111.707 160.687C108.141 157.006 104.575 152.904 101.048 148.418C104.499 148.571 108.026 148.686 111.592 148.686C115.196 148.686 118.762 148.609 122.251 148.418C118.8 152.904 115.234 157.006 111.707 160.687ZM83.1806 138.104C77.7361 137.299 72.4833 136.302 67.4606 135.075C68.8792 130.129 70.6429 125.029 72.6367 119.93C74.2087 122.997 75.8574 126.065 77.6595 129.132C79.4615 132.199 81.3019 135.19 83.1806 138.104ZM111.515 58.3149C115.081 61.9957 118.647 66.0983 122.174 70.5842C118.723 70.4309 115.196 70.3158 111.63 70.3158C108.026 70.3158 104.46 70.3925 100.971 70.5842C104.422 66.0983 107.988 61.9957 111.515 58.3149ZM83.1423 80.8981C81.2636 83.8504 79.3848 86.8794 77.6211 89.9851C75.8574 93.0524 74.2087 96.1198 72.6367 99.1871C70.5663 94.0493 68.8025 88.9115 67.3456 83.9271C72.3683 82.7385 77.6595 81.7033 83.1423 80.8981ZM48.4431 128.902C34.8702 123.112 26.09 115.521 26.09 109.501C26.09 103.481 34.8702 95.8514 48.4431 90.1001C51.7405 88.6815 55.3446 87.4162 59.0638 86.2276C61.2492 93.7426 64.1249 101.564 67.6906 109.578C64.1632 117.553 61.3259 125.336 59.1788 132.813C55.383 131.624 51.7789 130.32 48.4431 128.902ZM69.0709 183.692C63.8565 180.701 61.5943 169.314 63.358 154.667C63.7798 151.063 64.4699 147.267 65.3135 143.395C72.8284 145.235 81.0335 146.654 89.6604 147.574C94.8365 154.667 100.204 161.109 105.611 166.745C93.1111 178.363 81.3786 184.727 73.4035 184.727C71.6782 184.689 70.2212 184.344 69.0709 183.692ZM160.017 154.476C161.819 169.122 159.596 180.51 154.419 183.539C153.269 184.229 151.774 184.536 150.01 184.536C142.073 184.536 130.303 178.209 117.803 166.668C123.171 161.032 128.539 154.629 133.638 147.536C142.303 146.616 150.509 145.197 158.024 143.318C158.905 147.191 159.596 150.91 160.017 154.476ZM174.779 128.902C171.481 130.32 167.877 131.586 164.158 132.774C161.973 125.259 159.097 117.438 155.531 109.424C159.059 101.449 161.896 93.6659 164.043 86.1893C167.839 87.3779 171.443 88.6815 174.817 90.1001C188.39 95.8897 197.17 103.481 197.17 109.501C197.132 115.521 188.352 123.151 174.779 128.902Z" fill="#61DAFB"/>
<path d="M111.592 127.023C121.27 127.023 129.115 119.178 129.115 109.501C129.115 99.8239 121.27 91.9789 111.592 91.9789C101.915 91.9789 94.0703 99.8239 94.0703 109.501C94.0703 119.178 101.915 127.023 111.592 127.023Z" fill="#61DAFB"/>
</svg>
