<svg width="221" height="221" viewBox="0 0 221 221" fill="none" xmlns="http://www.w3.org/2000/svg">
<rect width="221" height="221" rx="84.6175" fill="black"/>
<path d="M201.392 61.7651C201.392 61.7651 141.865 16.816 95.6754 27.3136L91.6194 28.435C85.3035 30.2553 79.7776 34.1352 75.9206 39.4575C75.2987 40.3603 74.733 41.3005 74.2267 42.2728L57.168 71.2607L86.633 77.0106C92.6627 81.2621 99.5209 84.1947 106.76 85.617C114 87.0394 121.458 86.9197 128.648 85.2656L181.136 95.5247L201.392 61.7651Z" fill="#76B3E1"/>
<path opacity="0.3" d="M201.392 61.7651C201.392 61.7651 141.865 16.816 95.6754 27.3136L91.6194 28.435C85.3035 30.2553 79.7776 34.1352 75.9206 39.4575C75.2987 40.3603 74.733 41.3005 74.2267 42.2728L57.168 71.2607L86.633 77.0106C92.6627 81.2621 99.5209 84.1947 106.76 85.617C114 87.0394 121.458 86.9197 128.648 85.2656L181.136 95.5247L201.392 61.7651Z" fill="url(#paint0_linear_4128_35)"/>
<path d="M75.3966 61.1925L71.3168 62.3377C52.4687 68.4216 46.0269 86.0529 56.8586 101.513C63.1123 109.376 71.5737 115.19 81.156 118.208C90.7384 121.227 101.004 121.312 110.635 118.453L181.065 95.5247C181.065 95.5247 121.658 50.6948 75.3966 61.1925Z" fill="#518AC8"/>
<path opacity="0.3" d="M75.3966 61.1925L71.3168 62.3377C52.4687 68.4216 46.0269 86.0529 56.8586 101.513C63.1123 109.376 71.5737 115.19 81.156 118.208C90.7384 121.227 101.004 121.312 110.635 118.453L181.065 95.5247C181.065 95.5247 121.658 50.6948 75.3966 61.1925Z" fill="url(#paint1_linear_4128_35)"/>
<path d="M168.182 112.035C161.938 104.13 153.467 98.279 143.863 95.2381C134.26 92.1972 123.965 92.1058 114.309 94.9759L43.9511 117.784L21.8105 157.198L147.854 178.671L170.448 138.47C174.957 130.763 174.504 121.053 168.182 112.035Z" fill="url(#paint2_linear_4128_35)"/>
<path d="M146.041 151.449C139.8 143.575 131.349 137.744 121.772 134.705C112.194 131.665 101.928 131.556 92.2881 134.39L21.8105 157.199C21.8105 157.199 81.4564 202.148 127.527 191.65L131.583 190.529C150.455 184.54 156.897 166.909 146.041 151.449Z" fill="url(#paint3_linear_4128_35)"/>
<defs>
<linearGradient id="paint0_linear_4128_35" x1="48.3642" y1="25.238" x2="188.985" y2="93.5683" gradientUnits="userSpaceOnUse">
<stop offset="0.1" stop-color="#76B3E1"/>
<stop offset="0.3" stop-color="#DCF2FD"/>
<stop offset="1" stop-color="#76B3E1"/>
</linearGradient>
<linearGradient id="paint1_linear_4128_35" x1="125.499" y1="58.7113" x2="100.877" y2="140.712" gradientUnits="userSpaceOnUse">
<stop stop-color="#76B3E1"/>
<stop offset="0.5" stop-color="#4377BB"/>
<stop offset="1" stop-color="#1F3B77"/>
</linearGradient>
<linearGradient id="paint2_linear_4128_35" x1="38.0342" y1="94.4749" x2="180.23" y2="191.149" gradientUnits="userSpaceOnUse">
<stop stop-color="#315AA9"/>
<stop offset="0.5" stop-color="#518AC8"/>
<stop offset="1" stop-color="#315AA9"/>
</linearGradient>
<linearGradient id="paint3_linear_4128_35" x1="102.237" y1="106.046" x2="44.8577" y2="316.453" gradientUnits="userSpaceOnUse">
<stop stop-color="#4377BB"/>
<stop offset="0.5" stop-color="#1A336B"/>
<stop offset="1" stop-color="#1A336B"/>
</linearGradient>
</defs>
</svg>
