<svg width="221" height="221" viewBox="0 0 221 221" fill="none" xmlns="http://www.w3.org/2000/svg">
<rect width="221" height="221" rx="84.6175" fill="black"/>
<path d="M148.882 42.26H56.6585C50.4699 42.26 45.4473 47.3275 45.4473 53.4712V155.18C45.4473 161.368 50.5147 166.391 56.6585 166.391H117.423C116.751 136.165 127.065 77.5081 148.905 42.1703L148.882 42.26Z" fill="#0F80CC"/>
<path d="M145.516 45.5559H56.6553C54.546 45.5618 52.5248 46.4024 51.0333 47.8939C49.5418 49.3854 48.7012 51.4066 48.6953 53.5159V147.802C68.8307 140.067 99.0338 133.407 119.932 133.721C126.374 103.765 134.909 74.3027 145.516 45.5559Z" fill="url(#paint0_linear_4129_424)"/>
<path d="M170.406 38.9415C164.083 33.3359 156.437 35.5781 148.881 42.26L145.517 45.5337C132.602 59.2114 120.853 84.5937 116.906 103.989C118.312 107.061 119.424 110.259 120.225 113.541L120.718 115.783L121.211 118.07C121.211 118.07 121.099 117.622 120.629 116.277L120.315 115.38C120.252 115.214 120.184 115.049 120.113 114.886C118.827 112.198 117.428 109.564 115.92 106.994C115.104 109.378 114.334 111.778 113.61 114.191C116.57 119.618 118.364 128.901 118.364 128.901C118.364 128.901 118.207 128.295 117.467 126.21C116.794 124.349 113.521 118.586 112.758 117.241C111.413 122.174 110.897 125.492 111.368 126.3C112.265 127.869 113.162 130.784 113.947 133.564C115.158 138.495 116.145 143.478 116.906 148.498L117.018 149.888C116.786 155.495 116.898 161.111 117.355 166.705C117.938 173.723 119.037 179.755 120.427 182.984L121.368 182.468C119.35 176.1 118.498 167.781 118.857 158.162C119.418 143.475 122.781 125.761 129.037 107.308C139.643 79.2123 154.262 56.8346 167.671 46.1615C155.451 57.1934 138.925 92.89 133.992 106.097C128.454 120.896 124.53 134.798 122.153 148.094C126.234 135.627 139.419 130.246 139.419 130.246C139.419 130.246 145.921 122.263 153.455 110.85L138.993 114.707L134.329 116.77C134.329 116.77 146.213 109.527 156.46 106.231C170.519 84.1004 185.833 52.6416 170.406 38.9191" fill="#003B57"/>
<defs>
<linearGradient id="paint0_linear_4129_424" x1="104.55" y1="47.6412" x2="104.55" y2="142.13" gradientUnits="userSpaceOnUse">
<stop stop-color="#97D9F6"/>
<stop offset="0.92024" stop-color="#0F80CC"/>
<stop offset="1" stop-color="#0F80CC"/>
</linearGradient>
</defs>
</svg>
