<svg width="221" height="221" viewBox="0 0 221 221" fill="none" xmlns="http://www.w3.org/2000/svg">
<rect width="221" height="221" rx="84.6175" fill="black"/>
<path d="M127.471 193.042C123.076 198.576 114.166 195.544 114.06 188.478L112.512 85.1265H182.005C194.592 85.1265 201.612 99.6647 193.785 109.523L127.471 193.042Z" fill="url(#paint0_linear_4129_424)"/>
<path d="M127.471 193.042C123.076 198.576 114.166 195.544 114.06 188.478L112.512 85.1265H182.005C194.592 85.1265 201.612 99.6647 193.785 109.523L127.471 193.042Z" fill="url(#paint1_linear_4129_424)" fill-opacity="0.2"/>
<path d="M99.2083 26.7414C103.603 21.2068 112.513 24.2393 112.619 31.3056L113.297 134.657H44.674C32.0865 134.657 25.0663 120.118 32.8935 110.26L99.2083 26.7414Z" fill="#3ECF8E"/>
<defs>
<linearGradient id="paint0_linear_4129_424" x1="112.512" y1="108.042" x2="174.275" y2="133.945" gradientUnits="userSpaceOnUse">
<stop stop-color="#249361"/>
<stop offset="1" stop-color="#3ECF8E"/>
</linearGradient>
<linearGradient id="paint1_linear_4129_424" x1="85.1292" y1="70.5505" x2="113.296" y2="123.574" gradientUnits="userSpaceOnUse">
<stop/>
<stop offset="1" stop-opacity="0"/>
</linearGradient>
</defs>
</svg>
