<svg width="221" height="221" viewBox="0 0 221 221" fill="none" xmlns="http://www.w3.org/2000/svg">
<rect width="221" height="221" rx="84.6175" fill="black"/>
<path d="M171.348 47.8886C155.793 25.6255 125.072 19.0266 102.859 33.179L63.8482 58.0425C58.5782 61.358 54.0579 65.7366 50.5763 70.8983C47.0947 76.0601 44.7284 81.8916 43.6288 88.0199C41.7679 98.3427 43.4035 108.991 48.2767 118.28C44.9375 123.345 42.66 129.035 41.5819 135.006C40.4706 141.258 40.6187 147.668 42.0177 153.862C43.4168 160.056 46.0385 165.908 49.7291 171.075C65.2873 193.34 96.0086 199.936 118.218 185.784L157.229 160.921C162.499 157.606 167.02 153.227 170.501 148.065C173.983 142.904 176.349 137.072 177.448 130.944C179.309 120.621 177.674 109.972 172.803 100.683C176.141 95.6174 178.418 89.9277 179.495 83.9577C180.607 77.7059 180.459 71.295 179.06 65.1012C177.661 58.9074 175.039 53.0554 171.348 47.8886Z" fill="#FF3E00"/>
<path d="M99.0469 173.169C92.908 174.765 86.4271 174.439 80.4795 172.234C74.532 170.03 69.4042 166.053 65.7889 160.841C63.5689 157.734 61.9919 154.215 61.1503 150.49C60.3088 146.765 60.2196 142.91 60.8882 139.15C61.1145 137.916 61.426 136.699 61.8204 135.507L62.5551 133.267L64.5536 134.735C69.1694 138.127 74.3303 140.705 79.8139 142.36L81.2638 142.8L81.1303 144.247C80.9531 146.305 81.5105 148.36 82.7038 150.047C83.7918 151.617 85.3355 152.815 87.1263 153.48C88.9171 154.145 90.8687 154.244 92.7176 153.764C93.5653 153.537 94.3734 153.182 95.1136 152.711L134.125 127.85C135.079 127.249 135.898 126.456 136.529 125.521C137.16 124.586 137.59 123.529 137.79 122.419C137.99 121.286 137.963 120.124 137.709 119.002C137.456 117.879 136.981 116.818 136.313 115.881C135.224 114.311 133.68 113.113 131.889 112.448C130.097 111.783 128.145 111.683 126.296 112.163C125.449 112.389 124.642 112.744 123.903 113.215L109.016 122.705C106.568 124.261 103.896 125.434 101.094 126.184C94.9549 127.78 88.4738 127.453 82.5261 125.249C76.5783 123.044 71.4504 119.067 67.8349 113.855C65.615 110.748 64.038 107.229 63.1964 103.504C62.3549 99.7794 62.2657 95.9241 62.9342 92.1644C63.5954 88.4793 65.0185 84.9728 67.1123 81.8691C69.2061 78.7654 71.9246 76.1328 75.094 74.1397L114.103 49.277C116.552 47.718 119.225 46.5434 122.03 45.794C128.169 44.1979 134.65 44.5242 140.597 46.7289C146.545 48.9335 151.673 52.9103 155.288 58.1222C157.508 61.2293 159.085 64.7485 159.926 68.4733C160.768 72.198 160.857 76.0534 160.189 79.8131C159.961 81.0472 159.65 82.2644 159.256 83.4561L158.522 85.6963L156.524 84.2305C151.909 80.8371 146.747 78.2573 141.263 76.6026L139.813 76.1626L139.947 74.7156C140.122 72.6571 139.565 70.6028 138.373 68.9154C137.285 67.3454 135.741 66.1471 133.951 65.4825C132.16 64.8178 130.208 64.7187 128.359 65.1986C127.512 65.4253 126.703 65.7804 125.963 66.2517L86.9513 91.1134C85.9966 91.7141 85.1777 92.5074 84.547 93.4425C83.9162 94.3776 83.4875 95.434 83.2881 96.5442C83.0867 97.6773 83.1134 98.8393 83.3665 99.962C83.6197 101.085 84.0942 102.146 84.7624 103.083C85.8511 104.653 87.3954 105.852 89.1867 106.517C90.9781 107.182 92.9303 107.281 94.7799 106.802C95.6276 106.575 96.4356 106.219 97.176 105.749L112.061 96.2623C114.508 94.7038 117.179 93.5296 119.982 92.7806C126.121 91.1845 132.602 91.5108 138.55 93.7155C144.497 95.9201 149.625 99.897 153.241 105.109C155.461 108.216 157.038 111.735 157.879 115.46C158.721 119.185 158.81 123.04 158.141 126.8C157.48 130.485 156.056 133.992 153.963 137.096C151.869 140.2 149.151 142.833 145.982 144.827L106.974 169.686C104.525 171.245 101.852 172.42 99.0469 173.169Z" fill="white"/>
</svg>
