<svg width="221" height="221" viewBox="0 0 221 221" fill="none" xmlns="http://www.w3.org/2000/svg">
<rect width="221" height="221" rx="84.6175" fill="black"/>
<mask id="mask0_4129_424" style="mask-type:luminance" maskUnits="userSpaceOnUse" x="110" y="35" width="89" height="149">
<path d="M198.407 35.7647H110.904V183.293H198.407V35.7647Z" fill="white"/>
</mask>
<g mask="url(#mask0_4129_424)">
<path d="M110.904 69.6466C175.868 69.6466 164.281 96.6726 164.281 96.6726C163.706 113.89 157.313 152.218 155.194 156.283C153.073 160.352 141.817 172.01 133.009 176.482C133.009 176.482 129.828 173.085 127.881 170.092C125.416 173.023 112.648 183.309 110.904 183.309V69.6466Z" fill="#1EBCA1"/>
<path d="M165.078 91.9946C165.078 94.7694 164.281 96.6568 164.281 96.6568C163.706 113.874 157.313 152.199 155.194 156.268C153.073 160.336 141.817 171.994 133.009 176.466C133.009 176.466 129.828 173.069 127.881 170.076C125.416 173.007 112.648 183.294 110.904 183.294V91.9946H165.078Z" fill="#1EBCA1"/>
<path d="M156.91 96.3443L153.791 121.702L136.455 123.258L137.983 144.687C137.983 144.687 127.428 153.493 110.92 153.493V97.9036L156.926 96.3412L156.91 96.3443Z" fill="url(#paint0_linear_4129_424)"/>
<path d="M192.164 85.7515L107.783 114.64V86.9139L183.893 67.5905L192.164 85.7515Z" fill="#4FF7D1"/>
<path d="M192.173 85.7451L168.925 93.5538V37.324C168.925 37.324 192.173 62.7282 192.173 85.7451ZM140.227 82.0204L148.508 65.6092L161.12 80.9142M107.783 86.9137H126.491L130.266 137.628C122.924 139.504 115.376 140.452 107.799 140.45V86.9137H107.783Z" fill="#4FF7D1"/>
</g>
<mask id="mask1_4129_424" style="mask-type:luminance" maskUnits="userSpaceOnUse" x="23" y="35" width="89" height="149">
<path d="M23.5977 35.7647H111.103V183.293H23.5977V35.7647Z" fill="white"/>
</mask>
<g mask="url(#mask1_4129_424)">
<path d="M111.108 69.6466C46.1441 69.6466 57.7306 96.6726 57.7306 96.6726C58.3056 113.89 64.6988 152.218 66.8174 156.283C68.9391 160.352 80.1913 172.01 89.0031 176.482C89.0031 176.482 92.1841 173.085 94.1308 170.092C96.5931 173.023 109.361 183.309 111.108 183.309V69.6466Z" fill="#1EBCA1"/>
<path d="M56.9297 91.9946C56.9297 94.7694 57.7234 96.6568 57.7234 96.6568C58.3015 113.874 64.6916 152.199 66.8133 156.268C68.9318 160.336 80.1872 171.994 88.999 176.466C88.999 176.466 92.1768 173.069 94.1236 170.076C96.589 173.007 109.357 183.294 111.103 183.294V91.9946H56.9297Z" fill="#1EBCA1"/>
<path d="M65.1016 96.3443L68.2201 121.702L85.553 123.258L84.025 144.687C84.025 144.687 94.5804 153.493 111.092 153.493V97.9036L65.0859 96.3412L65.1016 96.3443Z" fill="url(#paint1_linear_4129_424)"/>
<path d="M29.8438 85.7515L114.221 114.64V86.9139L38.115 67.5905L29.8438 85.7515Z" fill="#4FF7D1"/>
<path d="M29.8371 85.7451L53.0821 93.5538V37.324C53.0821 37.324 29.834 62.7282 29.834 85.7451H29.8371ZM81.7829 82.0204L73.5023 65.6092L60.894 80.9142M114.224 86.9137H95.5162L91.7446 137.628C99.119 139.513 106.662 140.45 114.208 140.45V86.9137H114.224Z" fill="#4FF7D1"/>
</g>
<defs>
<linearGradient id="paint0_linear_4129_424" x1="156.91" y1="-109.536" x2="110.904" y2="-109.536" gradientUnits="userSpaceOnUse">
<stop stop-color="#1D2B33"/>
<stop offset="1" stop-color="#121B24"/>
</linearGradient>
<linearGradient id="paint1_linear_4129_424" x1="65.1016" y1="-109.536" x2="111.107" y2="-109.536" gradientUnits="userSpaceOnUse">
<stop stop-color="#1D2B33"/>
<stop offset="1" stop-color="#121B24"/>
</linearGradient>
</defs>
</svg>
